<?xml version="1.0" encoding="UTF-8" standalone="no"?>
<!-- Created with Inkscape (http://www.inkscape.org/) -->

<svg
   xmlns:dc="http://purl.org/dc/elements/1.1/"
   xmlns:cc="http://creativecommons.org/ns#"
   xmlns:rdf="http://www.w3.org/1999/02/22-rdf-syntax-ns#"
   xmlns:svg="http://www.w3.org/2000/svg"
   xmlns="http://www.w3.org/2000/svg"
   xmlns:sodipodi="http://sodipodi.sourceforge.net/DTD/sodipodi-0.dtd"
   xmlns:inkscape="http://www.inkscape.org/namespaces/inkscape"
   width="89.454796mm"
   height="64.455811mm"
   viewBox="0 0 211.35227 297.75186"
   version="1.1"
   id="svg5466"
   sodipodi:docname="brain_bg.svg"
   inkscape:version="0.92.4 (f8dce91, 2019-08-02)">
  <defs
     id="defs5460" />
  <sodipodi:namedview
     id="base"
     pagecolor="#ffffff"
     bordercolor="#666666"
     borderopacity="1.0"
     inkscape:pageopacity="0.0"
     inkscape:pageshadow="2"
     inkscape:zoom="0.98994949"
     inkscape:cx="-52.624691"
     inkscape:cy="225.01261"
     inkscape:document-units="mm"
     inkscape:current-layer="layer1"
     showgrid="false"
     inkscape:window-width="1853"
     inkscape:window-height="1025"
     inkscape:window-x="67"
     inkscape:window-y="27"
     inkscape:window-maximized="1"
     fit-margin-top="0"
     fit-margin-left="0"
     fit-margin-right="0"
     fit-margin-bottom="0" />
  <metadata
     id="metadata5463">
    <rdf:RDF>
      <cc:Work
         rdf:about="">
        <dc:format>image/svg+xml</dc:format>
        <dc:type
           rdf:resource="http://purl.org/dc/dcmitype/StillImage" />
        <dc:title></dc:title>
      </cc:Work>
    </rdf:RDF>
  </metadata>
  <g
     inkscape:label="Layer 1"
     inkscape:groupmode="layer"
     id="layer1"
     transform="translate(0.1464954,-0.23358593)">
    <g
       id="brain-3"
       transform="matrix(0.43573084,0,0,0.44563157,-115.31307,-19.87269)"
       style="fill:#fffff9;fill-opacity:1;stroke:#000000;stroke-opacity:1">
      <g
         style="fill:#fffff9;fill-opacity:1;fill-rule:evenodd;stroke:#000000;stroke-width:2;stroke-opacity:1"
         id="brain-stem-6">
        <path
           style="fill:#fffff9;fill-opacity:1;stroke:#000000;stroke-width:1.9997319;stroke-miterlimit:4;stroke-dasharray:none;stroke-opacity:1"
           id="medulla-oblongata-7"
           d="m 518,579 c 7,28 20,47 41,55 30,14 53,48 77,78 13,-7 27,-13 38,-23 L 560,553 Z"
           inkscape:connector-curvature="0" />
        <g
           id="cerebellum"
           style="fill:#fffff9;fill-opacity:1;stroke:#000000;stroke-opacity:1">
          <path
             style="fill:#fffff9;fill-opacity:1;stroke:#000000;stroke-opacity:1"
             id="path2173"
             d="m 551,571 c 0,6 1,12 7,18 2,34 15,45 33,45 80,51 141,54 187,24 19,-11 49,-22 51,-33 22,-11 35,-22 47,-33 19,-16 19,-44 11,-79 -190,-6 -286,19 -336,58 z"
             inkscape:connector-curvature="0" />
          <path
             style="fill:#fffff9;fill-opacity:1;stroke:#000000;stroke-opacity:1"
             id="path2463"
             d="m 771,522 c -38,14 -80,30 -113,61"
             inkscape:connector-curvature="0" />
          <path
             style="fill:#fffff9;fill-opacity:1;stroke:#000000;stroke-opacity:1"
             id="path2555"
             d="m 613,607 c 63,31 129,41 198,34"
             inkscape:connector-curvature="0" />
          <path
             style="fill:#fffff9;fill-opacity:1;stroke:#000000;stroke-opacity:1"
             id="path2561"
             d="m 770,618 c 6,9 34,6 69,1"
             inkscape:connector-curvature="0" />
          <path
             style="fill:#fffff9;fill-opacity:1;stroke:#000000;stroke-opacity:1"
             id="path2563"
             d="m 788,610 c 13,4 46,-4 83,-14"
             inkscape:connector-curvature="0" />
          <path
             style="fill:#fffff9;fill-opacity:1;stroke:#000000;stroke-opacity:1"
             id="path2565"
             d="m 777,615 c 9,6 43,1 80,-7"
             inkscape:connector-curvature="0" />
          <path
             style="fill:#fffff9;fill-opacity:1;stroke:#000000;stroke-opacity:1"
             id="path2567"
             d="m 885,579 c -41,18 -72,28 -88,26"
             inkscape:connector-curvature="0" />
          <path
             style="fill:#fffff9;fill-opacity:1;stroke:#000000;stroke-opacity:1"
             id="path2569"
             d="m 808,598 c 22,-1 51,-13 80,-25"
             inkscape:connector-curvature="0" />
          <path
             style="fill:#fffff9;fill-opacity:1;stroke:#000000;stroke-opacity:1"
             id="path2571"
             d="m 822,590 c 22,-5 45,-14 68,-24"
             inkscape:connector-curvature="0" />
          <path
             style="fill:#fffff9;fill-opacity:1;stroke:#000000;stroke-opacity:1"
             id="path2573"
             d="m 891,558 c -18,9 -36,16 -55,22"
             inkscape:connector-curvature="0" />
          <path
             style="fill:#fffff9;fill-opacity:1;stroke:#000000;stroke-opacity:1"
             id="path2575"
             d="m 634,601 c 45,16 93,26 140,29"
             inkscape:connector-curvature="0" />
          <path
             style="fill:#fffff9;fill-opacity:1;stroke:#000000;stroke-opacity:1"
             id="path2523"
             d="m 564,590 c 3,19 12,34 26,43"
             inkscape:connector-curvature="0" />
          <path
             style="fill:#fffff9;fill-opacity:1;stroke:#000000;stroke-opacity:1"
             id="path2549"
             d="m 601,621 c 66,39 122,47 174,38"
             inkscape:connector-curvature="0" />
          <path
             style="fill:#fffff9;fill-opacity:1;stroke:#000000;stroke-opacity:1"
             id="path2551"
             d="m 604,616 c 65,36 125,45 182,37"
             inkscape:connector-curvature="0" />
          <path
             style="fill:#fffff9;fill-opacity:1;stroke:#000000;stroke-opacity:1"
             id="path2467"
             d="m 788,526 c -34,11 -70,25 -104,43"
             inkscape:connector-curvature="0" />
          <path
             style="fill:#fffff9;fill-opacity:1;stroke:#000000;stroke-opacity:1"
             id="path2553"
             d="m 608,611 c 70,34 133,43 193,36"
             inkscape:connector-curvature="0" />
          <path
             style="fill:#fffff9;fill-opacity:1;stroke:#000000;stroke-opacity:1"
             id="path2557"
             d="m 624,603 c 67,32 132,33 197,31"
             inkscape:connector-curvature="0" />
          <path
             style="fill:#fffff9;fill-opacity:1;stroke:#000000;stroke-opacity:1"
             id="path2559"
             d="m 758,623 c 7,9 32,9 71,3"
             inkscape:connector-curvature="0" />
          <path
             style="fill:#fffff9;fill-opacity:1;stroke:#000000;stroke-opacity:1"
             id="path2525"
             d="m 590,633 c 9,-10 17,-22 26,-30"
             inkscape:connector-curvature="0" />
          <path
             style="fill:#fffff9;fill-opacity:1;stroke:#000000;stroke-opacity:1"
             id="path2547"
             d="m 597,624 c 41,31 97,42 159,46"
             inkscape:connector-curvature="0" />
          <path
             style="fill:#fffff9;fill-opacity:1;stroke:#000000;stroke-opacity:1"
             id="path2545"
             d="m 594,630 c 34,24 85,41 144,46"
             inkscape:connector-curvature="0" />
          <path
             style="fill:#fffff9;fill-opacity:1;stroke:#000000;stroke-opacity:1"
             id="path2465"
             d="m 663,571 c 12,-9 24,-18 36,-27"
             inkscape:connector-curvature="0" />
          <path
             style="fill:#fffff9;fill-opacity:1;stroke:#000000;stroke-opacity:1"
             id="path2497"
             d="m 623,603 c 14,-12 19,-28 18,-49"
             inkscape:connector-curvature="0" />
          <path
             style="fill:#fffff9;fill-opacity:1;stroke:#000000;stroke-opacity:1"
             id="path2529"
             d="m 677,601 c 32,5 63,10 95,16"
             inkscape:connector-curvature="0" />
          <path
             style="fill:#fffff9;fill-opacity:1;stroke:#000000;stroke-opacity:1"
             id="path2527"
             d="m 869,551 c -28,29 -65,53 -111,72 -39,-3 -78,-16 -117,-24"
             inkscape:connector-curvature="0" />
          <path
             style="fill:#fffff9;fill-opacity:1;stroke:#000000;stroke-opacity:1"
             id="path2521"
             d="m 578,591 c -2,14 2,28 14,37"
             inkscape:connector-curvature="0" />
          <path
             style="fill:#fffff9;fill-opacity:1;stroke:#000000;stroke-opacity:1"
             id="path2517"
             d="m 561,589 -4,-18"
             inkscape:connector-curvature="0" />
          <path
             style="fill:#fffff9;fill-opacity:1;stroke:#000000;stroke-opacity:1"
             id="path2515"
             d="m 567,589 c -4,-7 -4,-14 -3,-21"
             inkscape:connector-curvature="0" />
          <path
             style="fill:#fffff9;fill-opacity:1;stroke:#000000;stroke-opacity:1"
             id="path2513"
             d="m 575,590 c -2,-9 -3,-18 -3,-27"
             inkscape:connector-curvature="0" />
          <path
             style="fill:#fffff9;fill-opacity:1;stroke:#000000;stroke-opacity:1"
             id="path2511"
             d="m 579,591 4,-35"
             inkscape:connector-curvature="0" />
          <path
             style="fill:#fffff9;fill-opacity:1;stroke:#000000;stroke-opacity:1"
             id="path2519"
             d="m 588,593 c -2,11 3,20 12,28"
             inkscape:connector-curvature="0" />
          <path
             style="fill:#fffff9;fill-opacity:1;stroke:#000000;stroke-opacity:1"
             id="path2531"
             d="m 786,610 c -29,-5 -57,-10 -85,-14"
             inkscape:connector-curvature="0" />
          <path
             style="fill:#fffff9;fill-opacity:1;stroke:#000000;stroke-opacity:1"
             id="path2533"
             d="m 727,590 c 25,4 46,7 70,14"
             inkscape:connector-curvature="0" />
          <path
             style="fill:#fffff9;fill-opacity:1;stroke:#000000;stroke-opacity:1"
             id="path2535"
             d="m 746,585 c 22,0 43,5 62,13"
             inkscape:connector-curvature="0" />
          <path
             style="fill:#fffff9;fill-opacity:1;stroke:#000000;stroke-opacity:1"
             id="path2509"
             d="m 585,593 c 1,-12 4,-23 7,-34"
             inkscape:connector-curvature="0" />
          <path
             style="fill:#fffff9;fill-opacity:1;stroke:#000000;stroke-opacity:1"
             id="path2537"
             d="m 774,578 c 15,2 31,6 46,13"
             inkscape:connector-curvature="0" />
          <path
             style="fill:#fffff9;fill-opacity:1;stroke:#000000;stroke-opacity:1"
             id="path2507"
             d="m 590,594 c 5,-11 7,-24 11,-34"
             inkscape:connector-curvature="0" />
          <path
             style="fill:#fffff9;fill-opacity:1;stroke:#000000;stroke-opacity:1"
             id="path2501"
             d="m 607,602 c 10,-13 18,-28 22,-45"
             inkscape:connector-curvature="0" />
          <path
             style="fill:#fffff9;fill-opacity:1;stroke:#000000;stroke-opacity:1"
             id="path2499"
             d="m 616,602 c 10,-13 17,-28 18,-46"
             inkscape:connector-curvature="0" />
          <path
             style="fill:#fffff9;fill-opacity:1;stroke:#000000;stroke-opacity:1"
             id="path2503"
             d="m 600,600 23,-42"
             inkscape:connector-curvature="0" />
          <path
             style="fill:#fffff9;fill-opacity:1;stroke:#000000;stroke-opacity:1"
             id="path2505"
             d="m 594,598 c 6,-13 10,-28 18,-38"
             inkscape:connector-curvature="0" />
          <path
             style="fill:#fffff9;fill-opacity:1;stroke:#000000;stroke-opacity:1"
             id="path2539"
             d="m 832,583 c -9,-1 -20,0 -30,0"
             inkscape:connector-curvature="0" />
          <path
             style="fill:#fffff9;fill-opacity:1;stroke:#000000;stroke-opacity:1"
             id="path2541"
             d="m 843,574 c -20,4 -38,4 -53,0"
             inkscape:connector-curvature="0" />
          <path
             style="fill:#fffff9;fill-opacity:1;stroke:#000000;stroke-opacity:1"
             id="path2543"
             d="m 804,570 c 9,2 28,0 47,-3 14,-4 27,-9 40,-15"
             inkscape:connector-curvature="0" />
          <path
             style="fill:#fffff9;fill-opacity:1;stroke:#000000;stroke-opacity:1"
             id="path2495"
             d="m 635,601 c 9,-12 14,-28 16,-47"
             inkscape:connector-curvature="0" />
          <path
             style="fill:#fffff9;fill-opacity:1;stroke:#000000;stroke-opacity:1"
             id="path2493"
             d="m 644,598 c 9,-15 13,-29 15,-44"
             inkscape:connector-curvature="0" />
          <path
             style="fill:#fffff9;fill-opacity:1;stroke:#000000;stroke-opacity:1"
             id="path2491"
             d="m 669,552 c -12,52 -40,56 -72,47 -13,-10 -26,-10 -39,-10"
             inkscape:connector-curvature="0" />
          <path
             style="fill:#fffff9;fill-opacity:1;stroke:#000000;stroke-opacity:1"
             id="path2471"
             d="m 889,523 c -44,14 -223,77 -242,77 m -1,-4 c 75,-31 155,-55 231,-77"
             inkscape:connector-curvature="0" />
          <path
             style="fill:#fffff9;fill-opacity:1;stroke:#000000;stroke-opacity:1"
             id="path2469"
             d="m 811,527 c -52,17 -109,41 -160,65"
             inkscape:connector-curvature="0" />
          <path
             style="fill:#fffff9;fill-opacity:1;stroke:#000000;stroke-opacity:1"
             id="path2473"
             d="m 891,544 c -46,17 -198,56 -234,60 79,-26 156,-47 233,-71"
             inkscape:connector-curvature="0" />
        </g>
      </g>
      <g
         style="fill:#fffff9;fill-opacity:1;fill-rule:evenodd;stroke:#000000;stroke-width:2;stroke-opacity:1"
         id="cerebrum-5">
        <path
           style="fill:#fffff9;fill-opacity:1;stroke:#000000;stroke-width:4;stroke-opacity:1"
           id="path2179-3"
           d="m 436,56 c -31,-2 -66,4 -96,21 -15,1 -31,9 -44,15 -29,2 -54,12 -76,29 -19,6 -39,13 -56,28 -32,19 -53,41 -63,68 -21,7 -32,23 -32,45 -15,13 -25,30 -27,52 -8,17 -7,34 -2,51 -1,6 -5,13 0,19 -5,11 -3,22 2,33 3,0 4,13 8,15 2,29 9,48 18,62 10,16 20,30 36,34 16,32 82,30 162,19 7,11 14,19 21,27 11,23 29,37 51,46 18,16 40,27 81,11 39,-2 70,-11 80,-41 10,-1 23,-6 44,-16 15,-3 27,-11 38,-20 11,8 34,4 57,0 36,-2 61,-7 73,-17 17,-5 34,-10 47,-20 30,10 58,14 81,0 67,7 120,-7 134,-79 11,-12 8,-30 3,-48 11,-18 -4,-33 -19,-49 -2,-21 -12,-36 -27,-49 2,-14 -3,-26 -23,-36 -8,-24 -22,-39 -39,-50 0,-25 -21,-41 -52,-53 C 792,124 762,103 727,88 713,77 699,76 685,78 669,58 641,53 603,60 593,53 582,53 572,53 549,51 529,50 512,50 483,44 459,48 436,56 Z"
           inkscape:connector-curvature="0" />
        <path
           style="fill:#fffff9;fill-opacity:1;stroke:#000000;stroke-opacity:1"
           id="path2181"
           d="m 149,168 c -11,10 -11,17 -4,21"
           inkscape:connector-curvature="0" />
        <path
           style="fill:#fffff9;fill-opacity:1;stroke:#000000;stroke-opacity:1"
           id="path2183"
           d="m 178,155 c 49,-34 85,-37 110,-20"
           inkscape:connector-curvature="0" />
        <path
           style="fill:#fffff9;fill-opacity:1;stroke:#000000;stroke-opacity:1"
           id="path2185"
           d="m 254,184 c 19,-14 27,-41 42,-60 20,-30 58,-5 82,-7"
           inkscape:connector-curvature="0" />
        <path
           style="fill:#fffff9;fill-opacity:1;stroke:#000000;stroke-opacity:1"
           id="path2187"
           d="m 129,215 c -12,14 3,26 3,39"
           inkscape:connector-curvature="0" />
        <path
           style="fill:#fffff9;fill-opacity:1;stroke:#000000;stroke-opacity:1"
           id="path2189"
           d="m 91,256 c 17,-9 13,-29 29,-43 11,-14 47,-15 60,-34 14,-21 32,-28 53,-24"
           inkscape:connector-curvature="0" />
        <path
           style="fill:#fffff9;fill-opacity:1;stroke:#000000;stroke-opacity:1"
           id="path2191"
           d="m 217,174 c 11,-11 19,-22 26,-33"
           inkscape:connector-curvature="0" />
        <path
           style="fill:#fffff9;fill-opacity:1;stroke:#000000;stroke-opacity:1"
           id="path2193"
           d="m 285,176 c 11,-8 16,-18 15,-29"
           inkscape:connector-curvature="0" />
        <path
           style="fill:#fffff9;fill-opacity:1;stroke:#000000;stroke-opacity:1"
           id="path2195"
           d="m 274,108 c 8,3 19,1 36,-11"
           inkscape:connector-curvature="0" />
        <path
           style="fill:#fffff9;fill-opacity:1;stroke:#000000;stroke-opacity:1"
           id="path2197"
           d="m 297,93 c -4,5 -7,10 -7,14"
           inkscape:connector-curvature="0" />
        <path
           style="fill:#fffff9;fill-opacity:1;stroke:#000000;stroke-opacity:1"
           id="path2199"
           d="m 341,77 c 2,4 5,7 8,7"
           inkscape:connector-curvature="0" />
        <path
           style="fill:#fffff9;fill-opacity:1;stroke:#000000;stroke-opacity:1"
           id="path2201"
           d="m 369,65 c -4,5 -7,9 -9,13"
           inkscape:connector-curvature="0" />
        <path
           style="fill:#fffff9;fill-opacity:1;stroke:#000000;stroke-opacity:1"
           id="path2203"
           d="m 457,64 c -8,1 -16,-1 -24,-8"
           inkscape:connector-curvature="0" />
        <path
           style="fill:#fffff9;fill-opacity:1;stroke:#000000;stroke-opacity:1"
           id="path2205"
           d="m 471,124 c -10,-2 -18,-6 -14,-29 1,-20 -15,-26 -43,-24 -26,2 -50,4 -61,10 -9,9 -19,18 -31,28"
           inkscape:connector-curvature="0" />
        <path
           style="fill:#fffff9;fill-opacity:1;stroke:#000000;stroke-opacity:1"
           id="path2207"
           d="m 357,89 c -7,7 -9,15 -7,23"
           inkscape:connector-curvature="0" />
        <path
           style="fill:#fffff9;fill-opacity:1;stroke:#000000;stroke-opacity:1"
           id="path2209"
           d="m 431,82 c -10,17 -24,32 -34,41 -21,22 -35,46 -13,72"
           inkscape:connector-curvature="0" />
        <path
           style="fill:#fffff9;fill-opacity:1;stroke:#000000;stroke-opacity:1"
           id="path2211"
           d="m 372,169 c -11,1 -19,-6 -26,-16 -5,-10 -19,-10 -25,-29"
           inkscape:connector-curvature="0" />
        <path
           style="fill:#fffff9;fill-opacity:1;stroke:#000000;stroke-opacity:1"
           id="path2213"
           d="m 454,129 c -49,2 -48,33 -72,44"
           inkscape:connector-curvature="0" />
        <path
           style="fill:#fffff9;fill-opacity:1;stroke:#000000;stroke-opacity:1"
           id="path2215"
           d="m 486,178 c 4,-16 -7,-22 -32,-21 -12,1 -24,1 -33,-4"
           inkscape:connector-curvature="0" />
        <path
           style="fill:#fffff9;fill-opacity:1;stroke:#000000;stroke-opacity:1"
           id="path2217"
           d="m 461,182 c -26,9 -51,12 -77,14 -12,-1 -29,38 -31,51"
           inkscape:connector-curvature="0" />
        <path
           style="fill:#fffff9;fill-opacity:1;stroke:#000000;stroke-opacity:1"
           id="path2219"
           d="m 48,324 c 7,-11 14,-17 23,-20"
           inkscape:connector-curvature="0" />
        <path
           style="fill:#fffff9;fill-opacity:1;stroke:#000000;stroke-opacity:1"
           id="path2221"
           d="m 71,311 c -4,-17 27,-22 36,-32 6,-5 11,-24 42,-31 17,-6 31,-24 51,-42 8,-9 23,-13 40,-14"
           inkscape:connector-curvature="0" />
        <path
           style="fill:#fffff9;fill-opacity:1;stroke:#000000;stroke-opacity:1"
           id="path2223"
           d="m 211,167 c -9,12 -16,27 -6,34"
           inkscape:connector-curvature="0" />
        <path
           style="fill:#fffff9;fill-opacity:1;stroke:#000000;stroke-opacity:1"
           id="path2225"
           d="m 169,236 c -2,12 -2,24 -1,35"
           inkscape:connector-curvature="0" />
        <path
           style="fill:#fffff9;fill-opacity:1;stroke:#000000;stroke-opacity:1"
           id="path2227"
           d="m 199,257 c -7,11 -19,24 -14,39"
           inkscape:connector-curvature="0" />
        <path
           style="fill:#fffff9;fill-opacity:1;stroke:#000000;stroke-opacity:1"
           id="path2229"
           d="m 175,292 c 18,5 28,23 41,28"
           inkscape:connector-curvature="0" />
        <path
           style="fill:#fffff9;fill-opacity:1;stroke:#000000;stroke-opacity:1"
           id="path2231"
           d="m 184,282 c -6,-10 -15,-15 -27,-6 -17,10 -33,21 -50,31 -16,14 -21,28 -14,42"
           inkscape:connector-curvature="0" />
        <path
           style="fill:#fffff9;fill-opacity:1;stroke:#000000;stroke-opacity:1"
           id="path2233"
           d="M 49,352 C 62,337 76,330 90,331"
           inkscape:connector-curvature="0" />
        <path
           style="fill:#fffff9;fill-opacity:1;stroke:#000000;stroke-opacity:1"
           id="path2235"
           d="m 71,335 c -3,-3 -8,-4 -14,-5"
           inkscape:connector-curvature="0" />
        <path
           style="fill:#fffff9;fill-opacity:1;stroke:#000000;stroke-opacity:1"
           id="path2237"
           d="m 103,319 c 24,-13 36,-10 40,3 10,54 26,64 41,78"
           inkscape:connector-curvature="0" />
        <path
           style="fill:#fffff9;fill-opacity:1;stroke:#000000;stroke-opacity:1"
           id="path2239"
           d="m 156,299 c -4,4 -10,10 -16,17"
           inkscape:connector-curvature="0" />
        <path
           style="fill:#fffff9;fill-opacity:1;stroke:#000000;stroke-opacity:1"
           id="path2241"
           d="m 206,268 c 18,-16 43,-33 -4,-49"
           inkscape:connector-curvature="0" />
        <path
           style="fill:#fffff9;fill-opacity:1;stroke:#000000;stroke-opacity:1"
           id="path2243"
           d="m 229,242 c 29,-1 45,5 46,21 1,11 -6,22 -5,34"
           inkscape:connector-curvature="0" />
        <path
           style="fill:#fffff9;fill-opacity:1;stroke:#000000;stroke-opacity:1"
           id="path2245"
           d="m 350,386 c 25,-24 40,-46 23,-84 -6,-19 -13,-37 -20,-55 -31,0 -58,5 -78,15"
           inkscape:connector-curvature="0" />
        <path
           style="fill:#fffff9;fill-opacity:1;stroke:#000000;stroke-opacity:1"
           id="path2247"
           d="m 323,276 c -15,14 -47,23 -45,48 1,47 18,57 29,68 4,3 8,15 18,27"
           inkscape:connector-curvature="0" />
        <path
           style="fill:#fffff9;fill-opacity:1;stroke:#000000;stroke-opacity:1"
           id="path2249"
           d="m 256,149 c -5,19 -26,39 -7,61 7,-5 26,-5 35,-7 16,-10 59,7 76,-5"
           inkscape:connector-curvature="0" />
        <path
           style="fill:#fffff9;fill-opacity:1;stroke:#000000;stroke-opacity:1"
           id="path2251"
           d="m 436,269 c 8,-30 -7,-48 -36,-57"
           inkscape:connector-curvature="0" />
        <path
           style="fill:#fffff9;fill-opacity:1;stroke:#000000;stroke-opacity:1"
           id="path2253"
           d="m 453,346 c -14,-2 -44,-23 -40,-44 -3,-25 -18,-34 -19,-44 -2,-5 5,-17 -1,-24"
           inkscape:connector-curvature="0" />
        <path
           style="fill:#fffff9;fill-opacity:1;stroke:#000000;stroke-opacity:1"
           id="path2255"
           d="m 308,393 c 8,-13 8,-25 -12,-39"
           inkscape:connector-curvature="0" />
        <path
           style="fill:#fffff9;fill-opacity:1;stroke:#000000;stroke-opacity:1"
           id="path2257"
           d="m 243,275 c 1,14 2,27 8,41"
           inkscape:connector-curvature="0" />
        <path
           style="fill:#fffff9;fill-opacity:1;stroke:#000000;stroke-opacity:1"
           id="path2259"
           d="m 278,324 c -16,-5 -29,-12 -34,-2 -5,4 -19,10 -15,28 -1,8 -30,12 -41,17"
           inkscape:connector-curvature="0" />
        <path
           style="fill:#fffff9;fill-opacity:1;stroke:#000000;stroke-opacity:1"
           id="path2261"
           d="m 209,369 c -9,7 -6,21 -10,31 2,21 26,25 51,28"
           inkscape:connector-curvature="0" />
        <path
           style="fill:#fffff9;fill-opacity:1;stroke:#000000;stroke-opacity:1"
           id="path2263"
           d="m 96,366 c 6,6 17,11 41,14 10,2 9,9 32,16 9,1 20,2 30,4"
           inkscape:connector-curvature="0" />
        <path
           style="fill:#fffff9;fill-opacity:1;stroke:#000000;stroke-opacity:1"
           id="path2265"
           d="m 111,336 c -6,6 -19,11 -20,19 -2,8 -8,16 -13,24 -8,15 -13,27 -12,37 1,21 24,32 36,45"
           inkscape:connector-curvature="0" />
        <path
           style="fill:#fffff9;fill-opacity:1;stroke:#000000;stroke-opacity:1"
           id="path2267"
           d="m 47,371 c -3,-2 -5,-4 -7,-6"
           inkscape:connector-curvature="0" />
        <path
           style="fill:#fffff9;fill-opacity:1;stroke:#000000;stroke-opacity:1"
           id="path2269"
           d="m 70,362 c -7,7 -14,14 -19,23 -4,11 -3,20 -5,39"
           inkscape:connector-curvature="0" />
        <path
           style="fill:#fffff9;fill-opacity:1;stroke:#000000;stroke-opacity:1"
           id="path2271"
           d="m 51,387 c 0,-3 -2,-5 -4,-7"
           inkscape:connector-curvature="0" />
        <path
           style="fill:#fffff9;fill-opacity:1;stroke:#000000;stroke-opacity:1"
           id="path2273"
           d="m 51,432 c 2,-6 11,-12 6,-19"
           inkscape:connector-curvature="0" />
        <path
           style="fill:#fffff9;fill-opacity:1;stroke:#000000;stroke-opacity:1"
           id="path2275"
           d="m 70,495 c 2,-4 1,-9 3,-11"
           inkscape:connector-curvature="0" />
        <path
           style="fill:#fffff9;fill-opacity:1;stroke:#000000;stroke-opacity:1"
           id="path2277"
           d="m 104,528 c 6,-10 7,-16 3,-17"
           inkscape:connector-curvature="0" />
        <path
           style="fill:#fffff9;fill-opacity:1;stroke:#000000;stroke-opacity:1"
           id="path2279"
           d="m 114,515 -5,-3"
           inkscape:connector-curvature="0" />
        <path
           style="fill:#fffff9;fill-opacity:1;stroke:#000000;stroke-opacity:1"
           id="path2281"
           d="m 87,449 c -10,20 1,34 28,43"
           inkscape:connector-curvature="0" />
        <path
           style="fill:#fffff9;fill-opacity:1;stroke:#000000;stroke-opacity:1"
           id="path2283"
           d="m 84,394 c 22,12 45,37 65,44 22,8 54,36 73,23"
           inkscape:connector-curvature="0" />
        <path
           style="fill:#fffff9;fill-opacity:1;stroke:#000000;stroke-opacity:1"
           id="path2285"
           d="m 250,446 c -15,3 -33,15 -33,23 1,14 45,24 63,20"
           inkscape:connector-curvature="0" />
        <path
           style="fill:#fffff9;fill-opacity:1;stroke:#000000;stroke-opacity:1"
           id="path2287"
           d="m 104,471 c 7,6 17,8 36,-1 20,-6 27,1 41,5"
           inkscape:connector-curvature="0" />
        <path
           style="fill:#fffff9;fill-opacity:1;stroke:#000000;stroke-opacity:1"
           id="path2289"
           d="m 219,473 c -24,-2 -36,-1 -44,7 -14,9 -28,7 -33,8 -6,2 -23,19 -47,7"
           inkscape:connector-curvature="0" />
        <path
           style="fill:#fffff9;fill-opacity:1;stroke:#000000;stroke-opacity:1"
           id="path2291"
           d="m 154,547 c 33,2 68,1 104,-4"
           inkscape:connector-curvature="0" />
        <path
           style="fill:#fffff9;fill-opacity:1;stroke:#000000;stroke-opacity:1"
           id="path2293"
           d="m 192,507 c -8,-2 -12,-6 -12,-13 -1,14 -9,17 -15,23 -7,5 -6,13 -12,20"
           inkscape:connector-curvature="0" />
        <path
           style="fill:#fffff9;fill-opacity:1;stroke:#000000;stroke-opacity:1"
           id="path2295"
           d="m 228,488 c -20,0 -39,-1 -53,-8"
           inkscape:connector-curvature="0" />
        <path
           style="fill:#fffff9;fill-opacity:1;stroke:#000000;stroke-opacity:1"
           id="path2297"
           d="m 217,488 c 3,17 26,19 38,25"
           inkscape:connector-curvature="0" />
        <path
           style="fill:#fffff9;fill-opacity:1;stroke:#000000;stroke-opacity:1"
           id="path2299"
           d="m 209,503 c 2,-4 8,-4 12,-7"
           inkscape:connector-curvature="0" />
        <path
           style="fill:#fffff9;fill-opacity:1;stroke:#000000;stroke-opacity:1"
           id="path2301"
           d="m 237,500 c 5,-4 11,-6 15,-11"
           inkscape:connector-curvature="0" />
        <path
           style="fill:#fffff9;fill-opacity:1;stroke:#000000;stroke-opacity:1"
           id="path2303"
           d="m 266,501 c -9,-15 19,-20 26,-36"
           inkscape:connector-curvature="0" />
        <path
           style="fill:#fffff9;fill-opacity:1;stroke:#000000;stroke-opacity:1"
           id="path2305"
           d="m 264,406 c 16,13 39,20 53,24"
           inkscape:connector-curvature="0" />
        <path
           style="fill:#fffff9;fill-opacity:1;stroke:#000000;stroke-opacity:1"
           id="path2307"
           d="m 249,468 c 29,0 55,-19 60,-41 1,-2 8,-3 12,-4"
           inkscape:connector-curvature="0" />
        <path
           style="fill:#fffff9;fill-opacity:1;stroke:#000000;stroke-opacity:1"
           id="path2309"
           d="m 498,63 c 5,-5 12,-10 23,-13"
           inkscape:connector-curvature="0" />
        <path
           style="fill:#fffff9;fill-opacity:1;stroke:#000000;stroke-opacity:1"
           id="path2311"
           d="m 516,73 c -26,0 -48,4 -59,23"
           inkscape:connector-curvature="0" />
        <path
           style="fill:#fffff9;fill-opacity:1;stroke:#000000;stroke-opacity:1"
           id="path2313"
           d="m 489,91 c 6,4 10,8 10,13"
           inkscape:connector-curvature="0" />
        <path
           style="fill:#fffff9;fill-opacity:1;stroke:#000000;stroke-opacity:1"
           id="path2315"
           d="m 776,364 c 4,-46 -85,-59 -129,17 -6,16 -60,10 -88,18 -25,10 -50,24 -75,39 -10,16 -45,-10 -65,-8 -65,7 -66,104 -2,120"
           inkscape:connector-curvature="0" />
        <path
           style="fill:#fffff9;fill-opacity:1;stroke:#000000;stroke-opacity:1"
           id="path2317"
           d="m 536,327 c 1,20 -21,59 12,77"
           inkscape:connector-curvature="0" />
        <path
           style="fill:#fffff9;fill-opacity:1;stroke:#000000;stroke-opacity:1"
           id="path2319"
           d="m 475,369 c 11,-4 14,-21 21,-30"
           inkscape:connector-curvature="0" />
        <path
           style="fill:#fffff9;fill-opacity:1;stroke:#000000;stroke-opacity:1"
           id="path2321"
           d="m 453,394 c -5,11 1,15 12,16"
           inkscape:connector-curvature="0" />
        <path
           style="fill:#fffff9;fill-opacity:1;stroke:#000000;stroke-opacity:1"
           id="path2323"
           d="m 495,581 c 39,-35 33,-98 -28,-94 -21,2 -36,-3 -46,-13"
           inkscape:connector-curvature="0" />
        <path
           style="fill:#fffff9;fill-opacity:1;stroke:#000000;stroke-opacity:1"
           id="path2325"
           d="m 525,473 c 14,25 28,19 45,19 30,-1 47,-31 26,-63"
           inkscape:connector-curvature="0" />
        <path
           style="fill:#fffff9;fill-opacity:1;stroke:#000000;stroke-opacity:1"
           id="path2327"
           d="m 546,492 c -13,4 -23,10 -30,18"
           inkscape:connector-curvature="0" />
        <path
           style="fill:#fffff9;fill-opacity:1;stroke:#000000;stroke-opacity:1"
           id="path2329"
           d="m 493,514 c -12,4 -24,17 -38,26 -12,18 -29,25 -38,35 -10,15 -15,46 -72,29"
           inkscape:connector-curvature="0" />
        <path
           style="fill:#fffff9;fill-opacity:1;stroke:#000000;stroke-opacity:1"
           id="path2331"
           d="m 494,591 c -28,16 -73,2 -79,9"
           inkscape:connector-curvature="0" />
        <path
           style="fill:#fffff9;fill-opacity:1;stroke:#000000;stroke-opacity:1"
           id="path2333"
           d="m 567,452 c -10,-3 -16,-17 -21,-24"
           inkscape:connector-curvature="0" />
        <path
           style="fill:#fffff9;fill-opacity:1;stroke:#000000;stroke-opacity:1"
           id="path2335"
           d="m 392,411 c 22,12 41,9 60,-6"
           inkscape:connector-curvature="0" />
        <path
           style="fill:#fffff9;fill-opacity:1;stroke:#000000;stroke-opacity:1"
           id="path2337"
           d="m 418,418 c -8,12 -17,17 -28,16 -12,-2 -29,11 -49,27 -16,13 -22,27 -26,42 -3,18 -6,26 -10,33"
           inkscape:connector-curvature="0" />
        <path
           style="fill:#fffff9;fill-opacity:1;stroke:#000000;stroke-opacity:1"
           id="path2339"
           d="m 327,442 c -2,12 2,20 10,23"
           inkscape:connector-curvature="0" />
        <path
           style="fill:#fffff9;fill-opacity:1;stroke:#000000;stroke-opacity:1"
           id="path2341"
           d="m 314,587 c -10,-3 -22,-13 -30,-16"
           inkscape:connector-curvature="0" />
        <path
           style="fill:#fffff9;fill-opacity:1;stroke:#000000;stroke-opacity:1"
           id="path2343"
           d="m 356,542 c -38,18 -46,46 -17,79"
           inkscape:connector-curvature="0" />
        <path
           style="fill:#fffff9;fill-opacity:1;stroke:#000000;stroke-opacity:1"
           id="path2345"
           d="m 333,503 c -2,13 7,22 16,30 8,4 8,15 10,18 12,17 14,28 15,38"
           inkscape:connector-curvature="0" />
        <path
           style="fill:#fffff9;fill-opacity:1;stroke:#000000;stroke-opacity:1"
           id="path2347"
           d="m 611,358 c 14,-16 39,-3 58,-5"
           inkscape:connector-curvature="0" />
        <path
           style="fill:#fffff9;fill-opacity:1;stroke:#000000;stroke-opacity:1"
           id="path2349"
           d="m 562,373 c 12,-10 17,-23 13,-41"
           inkscape:connector-curvature="0" />
        <path
           style="fill:#fffff9;fill-opacity:1;stroke:#000000;stroke-opacity:1"
           id="path2351"
           d="m 586,365 c -4,-3 -8,-6 -11,-10"
           inkscape:connector-curvature="0" />
        <path
           style="fill:#fffff9;fill-opacity:1;stroke:#000000;stroke-opacity:1"
           id="path2353"
           d="m 581,554 c -4,-10 -1,-20 9,-29"
           inkscape:connector-curvature="0" />
        <path
           style="fill:#fffff9;fill-opacity:1;stroke:#000000;stroke-opacity:1"
           id="path2355"
           d="m 562,548 c 3,-5 13,-6 19,-9"
           inkscape:connector-curvature="0" />
        <path
           style="fill:#fffff9;fill-opacity:1;stroke:#000000;stroke-opacity:1"
           id="path2357"
           d="m 639,509 c -3,19 10,28 38,29"
           inkscape:connector-curvature="0" />
        <path
           style="fill:#fffff9;fill-opacity:1;stroke:#000000;stroke-opacity:1"
           id="path2359"
           d="m 630,540 c 5,-20 -8,-39 -34,-58"
           inkscape:connector-curvature="0" />
        <path
           style="fill:#fffff9;fill-opacity:1;stroke:#000000;stroke-opacity:1"
           id="path2361"
           d="m 631,528 c 3,-2 6,-4 9,-6"
           inkscape:connector-curvature="0" />
        <path
           style="fill:#fffff9;fill-opacity:1;stroke:#000000;stroke-opacity:1"
           id="path2363"
           d="m 683,467 c -15,-3 -27,-9 -27,-25 -3,-14 -21,-28 -13,-56"
           inkscape:connector-curvature="0" />
        <path
           style="fill:#fffff9;fill-opacity:1;stroke:#000000;stroke-opacity:1"
           id="path2365"
           d="m 612,480 c 12,12 36,-3 58,-3 54,-2 68,27 42,59"
           inkscape:connector-curvature="0" />
        <path
           style="fill:#fffff9;fill-opacity:1;stroke:#000000;stroke-opacity:1"
           id="path2367"
           d="m 724,512 c 26,-1 44,-11 55,-32"
           inkscape:connector-curvature="0" />
        <path
           style="fill:#fffff9;fill-opacity:1;stroke:#000000;stroke-opacity:1"
           id="path2369"
           d="m 758,518 -9,-10"
           inkscape:connector-curvature="0" />
        <path
           style="fill:#fffff9;fill-opacity:1;stroke:#000000;stroke-opacity:1"
           id="path2371"
           d="m 798,506 c 16,0 30,3 41,12"
           inkscape:connector-curvature="0" />
        <path
           style="fill:#fffff9;fill-opacity:1;stroke:#000000;stroke-opacity:1"
           id="path2373"
           d="m 830,500 c -5,3 -10,5 -15,7"
           inkscape:connector-curvature="0" />
        <path
           style="fill:#fffff9;fill-opacity:1;stroke:#000000;stroke-opacity:1"
           id="path2375"
           d="m 856,507 c -3,-17 8,-25 9,-35"
           inkscape:connector-curvature="0" />
        <path
           style="fill:#fffff9;fill-opacity:1;stroke:#000000;stroke-opacity:1"
           id="path2377"
           d="m 675,403 c 8,7 18,13 16,21 3,17 24,19 36,21 24,10 46,21 33,41"
           inkscape:connector-curvature="0" />
        <path
           style="fill:#fffff9;fill-opacity:1;stroke:#000000;stroke-opacity:1"
           id="path2379"
           d="m 549,310 c -13,-4 -25,-12 -37,-26"
           inkscape:connector-curvature="0" />
        <path
           style="fill:#fffff9;fill-opacity:1;stroke:#000000;stroke-opacity:1"
           id="path2381"
           d="m 588,152 c -9,6 -19,18 -33,27 -14,8 -29,15 -36,40 -2,22 0,37 -5,51 -4,13 -6,25 0,34"
           inkscape:connector-curvature="0" />
        <path
           style="fill:#fffff9;fill-opacity:1;stroke:#000000;stroke-opacity:1"
           id="path2383"
           d="m 524,140 c 33,8 44,18 41,31"
           inkscape:connector-curvature="0" />
        <path
           style="fill:#fffff9;fill-opacity:1;stroke:#000000;stroke-opacity:1"
           id="path2385"
           d="m 727,434 c 6,-10 6,-19 6,-29 10,-16 64,6 71,-39"
           inkscape:connector-curvature="0" />
        <path
           style="fill:#fffff9;fill-opacity:1;stroke:#000000;stroke-opacity:1"
           id="path2387"
           d="m 728,364 c 5,11 6,25 5,41"
           inkscape:connector-curvature="0" />
        <path
           style="fill:#fffff9;fill-opacity:1;stroke:#000000;stroke-opacity:1"
           id="path2389"
           d="m 512,183 c 6,9 9,18 11,26"
           inkscape:connector-curvature="0" />
        <path
           style="fill:#fffff9;fill-opacity:1;stroke:#000000;stroke-opacity:1"
           id="path2391"
           d="m 791,478 c 16,-24 16,-57 45,-67"
           inkscape:connector-curvature="0" />
        <path
           style="fill:#fffff9;fill-opacity:1;stroke:#000000;stroke-opacity:1"
           id="path2393"
           d="m 753,457 c 2,-6 5,-11 8,-15"
           inkscape:connector-curvature="0" />
        <path
           style="fill:#fffff9;fill-opacity:1;stroke:#000000;stroke-opacity:1"
           id="path2395"
           d="m 803,329 c -7,-4 -10,-11 -7,-23"
           inkscape:connector-curvature="0" />
        <path
           style="fill:#fffff9;fill-opacity:1;stroke:#000000;stroke-opacity:1"
           id="path2397"
           d="m 773,346 c 8,-5 15,-15 22,-28"
           inkscape:connector-curvature="0" />
        <path
           style="fill:#fffff9;fill-opacity:1;stroke:#000000;stroke-opacity:1"
           id="path2399"
           d="m 815,269 c 1,25 22,27 18,55"
           inkscape:connector-curvature="0" />
        <path
           style="fill:#fffff9;fill-opacity:1;stroke:#000000;stroke-opacity:1"
           id="path2401"
           d="m 762,322 c 1,-27 15,-43 32,-57 10,-11 22,-17 15,-52 4,-21 29,-44 7,-59 -26,-12 -48,-36 -88,-37"
           inkscape:connector-curvature="0" />
        <path
           style="fill:#fffff9;fill-opacity:1;stroke:#000000;stroke-opacity:1"
           id="path2403"
           d="m 546,288 c 12,-21 47,-33 50,-41 8,-21 2,-42 3,-62 6,-17 22,-24 40,-29 28,-32 58,-36 89,-12"
           inkscape:connector-curvature="0" />
        <path
           style="fill:#fffff9;fill-opacity:1;stroke:#000000;stroke-opacity:1"
           id="path2405"
           d="m 600,220 c -4,-5 -9,-8 -14,-11"
           inkscape:connector-curvature="0" />
        <path
           style="fill:#fffff9;fill-opacity:1;stroke:#000000;stroke-opacity:1"
           id="path2407"
           d="m 595,250 c 9,-5 17,-7 26,-6"
           inkscape:connector-curvature="0" />
        <path
           style="fill:#fffff9;fill-opacity:1;stroke:#000000;stroke-opacity:1"
           id="path2409"
           d="m 505,116 c 51,5 115,13 119,45"
           inkscape:connector-curvature="0" />
        <path
           style="fill:#fffff9;fill-opacity:1;stroke:#000000;stroke-opacity:1"
           id="path2411"
           d="m 629,123 c -7,-10 -24,-15 -32,-22"
           inkscape:connector-curvature="0" />
        <path
           style="fill:#fffff9;fill-opacity:1;stroke:#000000;stroke-opacity:1"
           id="path2413"
           d="m 597,77 c 7,12 11,23 18,35"
           inkscape:connector-curvature="0" />
        <path
           style="fill:#fffff9;fill-opacity:1;stroke:#000000;stroke-opacity:1"
           id="path2415"
           d="m 603,60 c 12,17 35,18 36,40"
           inkscape:connector-curvature="0" />
        <path
           style="fill:#fffff9;fill-opacity:1;stroke:#000000;stroke-opacity:1"
           id="path2417"
           d="m 634,85 c 2,-3 4,-5 6,-8"
           inkscape:connector-curvature="0" />
        <path
           style="fill:#fffff9;fill-opacity:1;stroke:#000000;stroke-opacity:1"
           id="path2419"
           d="M 674,131 C 662,102 636,103 623,96"
           inkscape:connector-curvature="0" />
        <path
           style="fill:#fffff9;fill-opacity:1;stroke:#000000;stroke-opacity:1"
           id="path2421"
           d="m 659,100 c 16,6 24,16 24,29"
           inkscape:connector-curvature="0" />
        <path
           style="fill:#fffff9;fill-opacity:1;stroke:#000000;stroke-opacity:1"
           id="path2423"
           d="m 635,67 c 20,5 37,13 51,27"
           inkscape:connector-curvature="0" />
        <path
           style="fill:#fffff9;fill-opacity:1;stroke:#000000;stroke-opacity:1"
           id="path2425"
           d="m 671,106 c 5,-13 28,-16 57,-17"
           inkscape:connector-curvature="0" />
        <path
           style="fill:#fffff9;fill-opacity:1;stroke:#000000;stroke-opacity:1"
           id="path2427"
           d="m 719,155 c 9,-23 60,-13 89,9"
           inkscape:connector-curvature="0" />
        <path
           style="fill:#fffff9;fill-opacity:1;stroke:#000000;stroke-opacity:1"
           id="path2429"
           d="m 625,180 c 16,-8 35,-10 54,1"
           inkscape:connector-curvature="0" />
        <path
           style="fill:#fffff9;fill-opacity:1;stroke:#000000;stroke-opacity:1"
           id="path2431"
           d="m 695,140 c -15,15 -29,30 -10,47 35,34 56,53 26,83"
           inkscape:connector-curvature="0" />
        <path
           style="fill:#fffff9;fill-opacity:1;stroke:#000000;stroke-opacity:1"
           id="path2433"
           d="m 782,162 c 9,13 9,28 3,42"
           inkscape:connector-curvature="0" />
        <path
           style="fill:#fffff9;fill-opacity:1;stroke:#000000;stroke-opacity:1"
           id="path2435"
           d="m 727,201 c 14,9 22,23 24,42 10,47 -3,58 -17,68"
           inkscape:connector-curvature="0" />
        <path
           style="fill:#fffff9;fill-opacity:1;stroke:#000000;stroke-opacity:1"
           id="path2437"
           d="m 641,293 c 30,7 52,8 57,-8"
           inkscape:connector-curvature="0" />
        <path
           style="fill:#fffff9;fill-opacity:1;stroke:#000000;stroke-opacity:1"
           id="path2439"
           d="m 674,298 c 7,1 14,4 19,8"
           inkscape:connector-curvature="0" />
        <path
           style="fill:#fffff9;fill-opacity:1;stroke:#000000;stroke-opacity:1"
           id="path2441"
           d="m 732,327 c 11,-15 0,-23 -46,-31"
           inkscape:connector-curvature="0" />
        <path
           style="fill:#fffff9;fill-opacity:1;stroke:#000000;stroke-opacity:1"
           id="path2443"
           d="m 740,213 c 17,-13 20,-34 30,-51"
           inkscape:connector-curvature="0" />
        <path
           style="fill:#fffff9;fill-opacity:1;stroke:#000000;stroke-opacity:1"
           id="path2445"
           d="m 809,214 c 21,-2 37,6 50,23"
           inkscape:connector-curvature="0" />
        <path
           style="fill:#fffff9;fill-opacity:1;stroke:#000000;stroke-opacity:1"
           id="path2447"
           d="m 841,199 c 6,2 16,5 28,8"
           inkscape:connector-curvature="0" />
        <path
           style="fill:#fffff9;fill-opacity:1;stroke:#000000;stroke-opacity:1"
           id="path2449"
           d="m 912,290 c -14,5 -23,16 -28,31 -13,10 -20,25 -24,41"
           inkscape:connector-curvature="0" />
        <path
           style="fill:#fffff9;fill-opacity:1;stroke:#000000;stroke-opacity:1"
           id="path2451"
           d="m 962,422 c 7,3 11,8 11,16"
           inkscape:connector-curvature="0" />
        <path
           style="fill:#fffff9;fill-opacity:1;stroke:#000000;stroke-opacity:1"
           id="path2453"
           d="m 941,328 c -4,5 -9,7 -16,8 -9,8 -15,17 -15,28 7,17 8,30 4,41"
           inkscape:connector-curvature="0" />
        <path
           style="fill:#fffff9;fill-opacity:1;stroke:#000000;stroke-opacity:1"
           id="path2455"
           d="m 913,350 c 0,-6 -2,-13 -7,-19"
           inkscape:connector-curvature="0" />
        <path
           style="fill:#fffff9;fill-opacity:1;stroke:#000000;stroke-opacity:1"
           id="path2457"
           d="m 937,403 c 6,-9 10,-19 10,-34 1,-12 4,-22 9,-28"
           inkscape:connector-curvature="0" />
        <path
           style="fill:#fffff9;fill-opacity:1;stroke:#000000;stroke-opacity:1"
           id="path2459"
           d="m 947,378 c 10,1 13,7 12,15 7,6 10,15 13,23"
           inkscape:connector-curvature="0" />
        <path
           style="fill:#fffff9;fill-opacity:1;stroke:#000000;stroke-opacity:1"
           id="path2461"
           d="m 677,197 c -9,18 -25,35 -27,54 -16,35 -71,32 -84,59"
           inkscape:connector-curvature="0" />
        <path
           style="fill:#fffff9;fill-opacity:1;stroke:#000000;stroke-width:1;stroke-opacity:1"
           id="path2577"
           d="m 884,320 c -2,-30 -49,-77 -77,-68 23,-16 83,23 77,68 z"
           inkscape:connector-curvature="0" />
        <path
           style="fill:#fffff9;fill-opacity:1;stroke:#000000;stroke-width:1;stroke-opacity:1"
           id="path2579"
           d="m 264,547 c -4,-28 9,-53 30,-74 23,-18 18,-44 28,-52 14,-27 51,-44 103,-53 16,-19 37,-29 66,-28 20,-17 38,-33 75,-33 2,9 5,18 9,26 -4,-5 -10,-11 -14,-18 -33,-3 -56,16 -69,32 -23,-5 -43,2 -62,24 -53,10 -91,26 -104,53 -7,24 -15,44 -30,52 -17,18 -32,44 -22,82 -3,-3 -6,-8 -10,-11 z"
           inkscape:connector-curvature="0" />
        <path
           style="fill:#fffff9;fill-opacity:1;stroke:#000000;stroke-width:1;stroke-opacity:1"
           id="path2581"
           d="m 567,54 c -9,6 -5,21 -11,32 -48,3 -75,21 -66,54 11,13 13,22 6,28 -14,8 -19,29 -24,52 -10,13 -16,34 -16,56 -1,19 -29,30 -25,46 2,0 3,0 4,0 0,-7 4,-14 11,-20 9,-5 13,-17 16,-33 -1,-14 3,-28 14,-43 5,-19 7,-47 27,-56 12,-5 5,-18 -6,-34 -13,-32 22,-40 59,-45 15,-4 11,-28 21,-36 -3,-1 -7,-1 -10,-1 z"
           inkscape:connector-curvature="0" />
        <path
           style="fill:#fffff9;fill-opacity:1;stroke:#000000;stroke-opacity:1"
           id="path2583"
           d="m 530,160 c -9,-3 -17,-2 -24,4"
           inkscape:connector-curvature="0" />
        <path
           style="fill:#fffff9;fill-opacity:1;stroke:#000000;stroke-width:1;stroke-opacity:1"
           id="path2599"
           d="m 903,251 c -7,8 -15,17 -23,25 7,0 16,-5 28,-20 z"
           inkscape:connector-curvature="0" />
        <path
           style="fill:#fffff9;fill-opacity:1;stroke:#000000;stroke-width:1;stroke-opacity:1"
           id="path2601"
           d="m 881,277 c -17,14 -34,29 -46,44 -9,12 -10,29 -7,48 2,14 4,28 7,41 4,0 7,0 11,1 16,16 56,13 68,19 7,10 13,17 17,15 7,7 12,15 15,23 -3,-10 3,-10 -18,-34 -9,-9 -30,-14 -63,-19 -23,-8 -28,-22 -30,-40 -4,-17 -6,-33 0,-50 13,-16 29,-32 46,-48 z"
           inkscape:connector-curvature="0" />
        <path
           style="fill:#fffff9;fill-opacity:1;stroke:#000000;stroke-width:1;stroke-opacity:1"
           id="path2609"
           d="m 838,407 c 3,23 11,44 28,60 34,1 55,20 85,21 l -7,7 c -14,1 -27,-11 -40,-13 -11,-4 -33,-5 -43,-10 -15,-21 -24,-43 -23,-65 z"
           inkscape:connector-curvature="0" />
      </g>
    </g>
  </g>
</svg>
