<?xml version="1.0" encoding="UTF-8" standalone="no"?>
<!-- Created with Inkscape (http://www.inkscape.org/) -->

<svg
   xmlns:dc="http://purl.org/dc/elements/1.1/"
   xmlns:cc="http://creativecommons.org/ns#"
   xmlns:rdf="http://www.w3.org/1999/02/22-rdf-syntax-ns#"
   xmlns:svg="http://www.w3.org/2000/svg"
   xmlns="http://www.w3.org/2000/svg"
   xmlns:sodipodi="http://sodipodi.sourceforge.net/DTD/sodipodi-0.dtd"
   xmlns:inkscape="http://www.inkscape.org/namespaces/inkscape"
   width="88.882446mm"
   height="64.293053mm"
   viewBox="0 0 88.882446 64.293053"
   version="1.1"
   id="svg8"
   inkscape:version="0.92.4 (f8dce91, 2019-08-02)"
   sodipodi:docname="brain.svg">
  <defs
     id="defs2" />
  <sodipodi:namedview
     id="base"
     pagecolor="#ffffff"
     bordercolor="#666666"
     borderopacity="1.0"
     inkscape:pageopacity="0.0"
     inkscape:pageshadow="2"
     inkscape:zoom="0.7"
     inkscape:cx="273.36794"
     inkscape:cy="5.2760059"
     inkscape:document-units="mm"
     inkscape:current-layer="svg8"
     showgrid="false"
     inkscape:window-width="1853"
     inkscape:window-height="1025"
     inkscape:window-x="67"
     inkscape:window-y="27"
     inkscape:window-maximized="1"
     fit-margin-top="0"
     fit-margin-left="0"
     fit-margin-right="0"
     fit-margin-bottom="0" />
  <metadata
     id="metadata5">
    <rdf:RDF>
      <cc:Work
         rdf:about="">
        <dc:format>image/svg+xml</dc:format>
        <dc:type
           rdf:resource="http://purl.org/dc/dcmitype/StillImage" />
        <dc:title></dc:title>
      </cc:Work>
    </rdf:RDF>
  </metadata>
  <g
     inkscape:label="Layer 1"
     inkscape:groupmode="layer"
     id="layer1"
     transform="translate(-52.489212,-64.714128)">
    <g
       id="brain"
       transform="matrix(0.09371608,0,0,0.09622447,49.290669,60.372614)"
       style="fill:#fffbff;fill-opacity:1;stroke:#000000;stroke-opacity:1">
      <g
         style="fill:#fffbff;fill-opacity:1;fill-rule:evenodd;stroke:#000000;stroke-width:2;stroke-opacity:1"
         id="brain-stem">
        <path
           style="fill:#fffbff;fill-opacity:1;stroke:#000000;stroke-width:1.9997319;stroke-miterlimit:4;stroke-dasharray:none;stroke-opacity:1"
           id="medulla-oblongata"
           d="m 518,579 c 7,28 20,47 41,55 30,14 53,48 77,78 13,-7 27,-13 38,-23 L 560,553 Z"
           inkscape:connector-curvature="0" />
      </g>
      <g
         style="fill:#fffbff;fill-opacity:1;fill-rule:evenodd;stroke:#000000;stroke-width:2;stroke-opacity:1"
         id="cerebrum">
        <path
           style="fill:#fffbff;fill-opacity:1;stroke:#000000;stroke-width:4;stroke-opacity:1"
           id="path2179"
           d="m 436,56 c -31,-2 -66,4 -96,21 -15,1 -31,9 -44,15 -29,2 -54,12 -76,29 -19,6 -39,13 -56,28 -32,19 -53,41 -63,68 -21,7 -32,23 -32,45 -15,13 -25,30 -27,52 -8,17 -7,34 -2,51 -1,6 -5,13 0,19 -5,11 -3,22 2,33 3,0 4,13 8,15 2,29 9,48 18,62 10,16 20,30 36,34 16,32 82,30 162,19 7,11 14,19 21,27 11,23 29,37 51,46 18,16 40,27 81,11 39,-2 70,-11 80,-41 10,-1 23,-6 44,-16 15,-3 27,-11 38,-20 11,8 34,4 57,0 36,-2 61,-7 73,-17 17,-5 34,-10 47,-20 30,10 58,14 81,0 67,7 120,-7 134,-79 11,-12 8,-30 3,-48 11,-18 -4,-33 -19,-49 -2,-21 -12,-36 -27,-49 2,-14 -3,-26 -23,-36 -8,-24 -22,-39 -39,-50 0,-25 -21,-41 -52,-53 C 792,124 762,103 727,88 713,77 699,76 685,78 669,58 641,53 603,60 593,53 582,53 572,53 549,51 529,50 512,50 483,44 459,48 436,56 Z"
           inkscape:connector-curvature="0" />
      </g>
    </g>
    <path
       style="opacity:1;fill:#008000;fill-opacity:1;stroke:#000000;stroke-width:1.11118114;stroke-linejoin:round;stroke-miterlimit:4;stroke-dasharray:none;stroke-dashoffset:0;stroke-opacity:1;paint-order:normal"
       d="m 430.28732,473.19348 c -9.62971,-1.76267 -20.52109,-6.24522 -30.8856,-12.71156 -2.75282,-1.71746 -4.07527,-2.33599 -5,-2.33855 -1.78291,-0.005 -4.6277,-1.43422 -6.02721,-3.02816 -1.9747,-2.24907 -3.23964,-5.9529 -3.80399,-11.13839 -0.16282,-1.49604 -0.46074,-2.40547 -0.9259,-2.82643 -0.37722,-0.34138 -0.92532,-1.42707 -1.218,-2.41264 -0.63636,-2.14287 -0.62843,-2.01947 -0.12991,-2.01947 0.77212,0 4.79541,-2.21974 7.24717,-3.99843 l 2.47085,-1.79253 2.06543,0.62536 c 1.70596,0.51652 2.89201,0.58956 6.81486,0.41967 2.6122,-0.11313 6.11551,-0.45912 7.78516,-0.76887 1.66964,-0.30975 4.96428,-0.72387 7.32143,-0.92028 10.61186,-0.88422 18.91073,-2.97085 21.96428,-5.52259 0.29464,-0.24623 2.38393,-1.03405 4.64286,-1.75072 4.06464,-1.28956 11.00231,-4.45481 11.75683,-5.36395 0.31901,-0.38438 1.02131,-0.28328 3.82742,0.55099 9.68616,2.87973 18.90072,2.72416 24.3036,-0.41031 1.04168,-0.60433 1.53967,-0.63067 5.89285,-0.3116 2.61526,0.19169 6.38577,0.24249 8.37892,0.11289 4.17541,-0.27151 3.75588,-0.64573 4.43031,3.9518 0.56588,3.85747 0.56682,10.27316 0.002,12.67857 -0.9156,3.89832 -2.27231,6.10698 -5.85566,9.53268 -4.04858,3.87046 -8.48679,7.22049 -12.70766,9.59192 -2.18267,1.22629 -3.25623,2.05429 -3.50268,2.70146 -0.54226,1.42398 -3.55503,3.48355 -10.81151,7.39092 -3.63393,1.95674 -7.87901,4.29382 -9.43353,5.19349 -3.07709,1.78086 -7.60495,3.54167 -11.27192,4.38347 -3.78321,0.86848 -13.04654,0.96537 -17.33026,0.18126 z"
       id="path5363"
       inkscape:connector-curvature="0"
       transform="scale(0.26458333)" />
    <path
       style="fill:#8c0b0b;fill-opacity:1;stroke:#000000;stroke-width:0.26458332px;stroke-linecap:butt;stroke-linejoin:miter;stroke-opacity:1"
       d="m 99.785714,65.489581 v 11.528274 l 22.489586,15.024555 16.70166,1.142746 v 0 l -0.24541,-1.261553 -0.47494,-1.322227 -0.82176,-1.080958 -0.98823,-1.050259 -0.10331,-1.565863 -0.97297,-1.242421 -1.07897,-0.655797 -0.55859,-1.336202 -0.99226,-1.596588 -0.9096,-0.933026 -1.19469,-0.945407 -0.21061,-1.476105 c -0.17324,-0.385851 0.11875,0.06673 -0.79139,-1.240235 l -1.17382,-0.985148 -0.91686,-0.609439 -1.78035,-0.788972 -1.95216,-2.116722 -2.39672,-1.902449 -2.17073,-1.400298 -1.82112,-0.835119 -1.81571,-0.999407 -1.14879,0.03746 -0.98827,0.03311 -0.79721,-0.87096 -1.19292,-0.653297 -1.29609,-0.382395 -1.39769,-0.20533 -1.35975,0.19859 -1.57425,0.16464 -1.21065,-0.553204 -1.27136,-0.135025 -2.21369,-0.126709 -1.464655,-0.118118 z"
       id="path5369"
       inkscape:connector-curvature="0"
       sodipodi:nodetypes="ccccccccccccccccccccccccccccccccccccccc" />
    <path
       style="fill:#800080;fill-opacity:1;stroke:#000000;stroke-width:0.26499999;stroke-linecap:butt;stroke-linejoin:round;stroke-miterlimit:4;stroke-dasharray:none;stroke-opacity:1"
       d="m 74.219146,113.0074 48.056154,-20.96499 16.70166,1.142746 1.74045,2.059758 0.49982,1.641094 -0.45962,1.014147 0.48155,2.319705 -0.2219,1.38915 -0.5408,0.90992 -0.29428,1.58005 -0.82236,1.90704 -1.18142,1.65477 -2.04486,1.39611 -1.76924,0.75879 -1.75636,0.94134 -4.14614,-0.25839 -2.11777,0.55314 -1.76177,0.20799 -1.85811,-0.24141 -1.92417,-0.37798 -2.12375,0.67847 -2.16284,0.98616 -2.35913,0.92535 -2.33835,0.42778 -4.51967,0.61677 -2.51339,0.21553 -1.06229,-0.47425 -1.17266,0.80889 -1.0146,0.55127 -0.97689,0.15866 -0.900041,0.30919 -1.009172,0.53375 -1.450873,0.54861 -1.141283,0.21849 -0.608113,1.22222 -0.482274,0.66468 -0.984869,0.79532 -1.318189,0.56773 -1.906838,0.45051 -2.197003,0.24474 -1.999371,0.69528 -1.65042,0.0841 -1.829631,-0.32879 -2.11158,-1.50902 -1.920343,-0.95579 -1.465805,-1.28314 -1.393372,-2.18739 z"
       id="path5373"
       inkscape:connector-curvature="0"
       sodipodi:nodetypes="cccccccccccccccccccccccccccccccccccccccccccccccc" />
    <path
       style="fill:#e9ddaf;fill-opacity:1;stroke:#000000;stroke-width:0.26458332px;stroke-linecap:butt;stroke-linejoin:miter;stroke-opacity:1"
       d="M 77.030627,69.225265 82.209822,82.498511 90.80878,105.64955 122.2753,92.04241 99.785714,77.017855 V 65.489581 c 0.884266,-0.379599 -1.215223,-0.277973 -2.512412,-0.305744 l -2.968228,-0.328975 -2.265614,0.331839 -1.888583,0.574483 -4.130942,0.172891 -2.804458,0.89114 -2.061343,0.956682 -2.250151,0.54666 z"
       id="path5375"
       inkscape:connector-curvature="0"
       sodipodi:nodetypes="ccccccccccccccc" />
    <path
       style="fill:#aad400;fill-opacity:1;stroke:#000000;stroke-width:0.26458332px;stroke-linecap:butt;stroke-linejoin:miter;stroke-opacity:1"
       d="m 53.976473,101.94158 29.225536,-16.324767 7.606771,20.032737 -16.589634,7.35785 -3.988817,0.5018 -2.766635,0.15198 -2.69219,0.069 -1.62386,-0.19334 -1.5873,-0.35133 -1.056509,-0.46014 -0.805927,-0.53945 -0.794403,-0.87318 -0.643932,-0.37565 -0.590449,-0.35025 -0.784624,-0.82642 -0.85903,-1.1753 -0.706177,-1.25649 -0.351023,-0.8514 -0.60337,-1.55235 z"
       id="path5377"
       inkscape:connector-curvature="0"
       sodipodi:nodetypes="cccccccccccccccccccc" />
    <path
       style="opacity:1;fill:#d400aa;fill-opacity:1;stroke:#000000;stroke-width:0.25293583;stroke-linejoin:round;stroke-miterlimit:4;stroke-dasharray:none;stroke-dashoffset:0;stroke-opacity:1;paint-order:normal"
       d="m 203.97257,383.94738 c -0.15884,-0.29681 -0.5152,-1.23946 -0.79191,-2.09479 -0.2767,-0.85532 -0.76985,-1.95287 -1.09589,-2.43901 -1.67857,-2.50281 -2.26405,-7.57127 -1.19115,-10.31173 0.52306,-1.336 0.52337,-1.35293 0.0394,-2.14657 -0.60211,-0.98747 -0.61588,-1.80319 -0.0698,-4.13801 0.4164,-1.7804 0.41301,-1.88034 -0.14554,-4.29315 -1.15527,-4.99048 -0.92372,-10.43102 0.61028,-14.33961 0.32707,-0.83338 0.72789,-2.42437 0.89071,-3.53553 0.82982,-5.66322 3.99362,-11.8165 8.00475,-15.56844 1.25356,-1.17256 1.25486,-1.17545 1.42162,-3.17512 0.36413,-4.36619 1.65571,-7.36361 4.33672,-10.06441 1.30618,-1.31582 2.33117,-2.0665 3.88044,-2.84194 1.15798,-0.57958 2.24653,-1.05378 2.419,-1.05378 0.17248,0 0.7297,-1.00387 1.23826,-2.23081 3.21963,-7.76763 9.61307,-14.89687 18.97056,-21.15385 1.52838,-1.02197 3.73119,-2.58959 4.89513,-3.48359 3.62711,-2.78593 8.59304,-5.25156 14.55127,-7.22484 1.96872,-0.65202 3.02423,-1.19389 4.78851,-2.45833 5.81574,-4.16808 11.99392,-6.86332 18.57126,-8.10176 4.06811,-0.76597 5.46778,-0.89102 5.62038,-0.50213 5.97327,15.22227 20.30423,52.12719 21.53592,55.45903 0.99994,2.70495 1.61429,4.71216 1.48136,4.83996 -0.12491,0.12009 -24.48972,13.7643 -54.14401,30.32045 -29.65429,16.55616 -54.2795,30.3216 -54.72268,30.58987 -0.80423,0.48681 -0.80635,0.48671 -1.09461,-0.0519 z"
       id="path5383"
       inkscape:connector-curvature="0"
       transform="scale(0.26458333)" />
  </g>
</svg>
