<svg
      xmlns="http://www.w3.org/2000/svg"
      width="335.934"
      height="242.997"
      version="1.1"
      viewBox="0 0 88.882 64.293"
    >
      <g fillOpacity="1" stroke="#000" strokeOpacity="1">
        <path
          fill="#fffbff"
          fillOpacity="1"
          fillRule="evenodd"
          stroke="#000"
          strokeOpacity="1"
          strokeWidth="4"
          d="M436 56c-31-2-66 4-96 21-15 1-31 9-44 15-29 2-54 12-76 29-19 6-39 13-56 28-32 19-53 41-63 68-21 7-32 23-32 45-15 13-25 30-27 52-8 17-7 34-2 51-1 6-5 13 0 19-5 11-3 22 2 33 3 0 4 13 8 15 2 29 9 48 18 62 10 16 20 30 36 34 16 32 82 30 162 19 7 11 14 19 21 27 11 23 29 37 51 46 18 16 40 27 81 11 39-2 70-11 80-41 10-1 23-6 44-16 15-3 27-11 38-20 11 8 34 4 57 0 36-2 61-7 73-17 17-5 34-10 47-20 30 10 58 14 81 0 67 7 120-7 134-79 11-12 8-30 3-48 11-18-4-33-19-49-2-21-12-36-27-49 2-14-3-26-23-36-8-24-22-39-39-50 0-25-21-41-52-53-24-29-54-50-89-65-14-11-28-12-42-10-16-20-44-25-82-18-10-7-21-7-31-7-23-2-43-3-60-3-29-6-53-2-76 6z"
          transform="translate(-52.49 -64.714) matrix(.09372 0 0 .09622 49.29 60.373)"
        ></path>
        <path
          fill="green"
          strokeDasharray="none"
          strokeDashoffset="0"
          strokeLinejoin="round"
          strokeMiterlimit="4"
          strokeWidth="0.294"
          d="M113.847 125.2c-2.548-.467-5.43-1.653-8.172-3.364-.728-.455-1.078-.618-1.323-.619-.472-.001-1.224-.38-1.595-.801-.522-.595-.857-1.575-1.006-2.947-.043-.396-.122-.637-.245-.748-.1-.09-.245-.378-.322-.638-.169-.567-.167-.535-.035-.535.205 0 1.27-.587 1.918-1.058l.654-.474.546.166c.451.136.765.156 1.803.11.691-.03 1.618-.12 2.06-.203a24.128 24.128 0 011.937-.243c2.808-.234 5.004-.786 5.811-1.461.078-.066.631-.274 1.229-.464 1.075-.34 2.91-1.178 3.11-1.419.085-.102.27-.075 1.013.146 2.563.762 5.001.72 6.43-.109.276-.16.408-.166 1.56-.082.692.05 1.69.064 2.217.03 1.104-.072.993-.171 1.172 1.045.15 1.021.15 2.718 0 3.355-.242 1.031-.6 1.616-1.549 2.522-1.071 1.024-2.245 1.91-3.362 2.538-.578.324-.862.543-.927.715-.143.376-.94.921-2.86 1.955a129.59 129.59 0 00-2.496 1.374c-.815.472-2.013.937-2.983 1.16-1 .23-3.452.256-4.585.048z"
          opacity="1"
          paintOrder="normal"
          transform="translate(-52.49 -64.714)"
        ></path>
        <path
          fill="#8c0b0b"
          strokeLinecap="butt"
          strokeLinejoin="miter"
          strokeWidth="0.265"
          d="M99.786 65.49v11.528l22.49 15.024 16.701 1.143v0l-.245-1.261-.475-1.323-.822-1.08-.988-1.05-.104-1.567-.973-1.242-1.079-.656-.558-1.336-.992-1.597-.91-.933-1.195-.945-.21-1.476c-.174-.386.118.066-.792-1.24l-1.174-.986-.916-.61-1.78-.788-1.953-2.117-2.397-1.902-2.17-1.4-1.822-.836-1.815-.999-1.149.037-.988.034-.798-.871-1.192-.654-1.297-.382-1.397-.205-1.36.198-1.574.165-1.21-.553-1.272-.135-2.214-.127-1.465-.118z"
          transform="translate(-52.49 -64.714)"
        ></path>
        <path
          fill="purple"
          strokeDasharray="none"
          strokeLinecap="butt"
          strokeLinejoin="round"
          strokeMiterlimit="4"
          strokeWidth="0.265"
          d="M74.22 113.007l48.055-20.965 16.702 1.143 1.74 2.06.5 1.641-.46 1.014.482 2.32-.222 1.389-.54.91-.295 1.58-.822 1.907-1.182 1.655-2.044 1.396-1.77.759-1.756.941-4.146-.258-2.118.553-1.762.208-1.858-.242-1.924-.378-2.124.679-2.163.986-2.359.925-2.338.428-4.52.617-2.513.215-1.062-.474-1.173.81-1.015.55-.977.159-.9.31-1.009.533-1.45.549-1.142.218-.608 1.222-.482.665-.985.795-1.318.568-1.907.45-2.197.245-2 .696-1.65.084-1.83-.33-2.111-1.508-1.92-.956-1.466-1.283-1.394-2.188z"
          transform="translate(-52.49 -64.714)"
        ></path>
        <path
          fill="#e9ddaf"
          strokeLinecap="butt"
          strokeLinejoin="miter"
          strokeWidth="0.265"
          d="M77.03 69.225L82.21 82.5l8.599 23.15 31.466-13.607-22.49-15.024V65.49c.885-.38-1.215-.278-2.512-.306l-2.968-.33-2.266.333-1.888.574-4.131.173-2.805.891-2.06.957-2.251.547z"
          transform="translate(-52.49 -64.714)"
        ></path>
        <path
          fill="#aad400"
          strokeLinecap="butt"
          strokeLinejoin="miter"
          strokeWidth="0.265"
          d="M53.976 101.942l29.226-16.325 7.607 20.033-16.59 7.357-3.989.502-2.766.152-2.692.07-1.624-.194-1.588-.351-1.056-.46-.806-.54-.794-.873-.644-.376-.59-.35-.785-.827-.86-1.175-.706-1.256-.35-.852-.604-1.552z"
          transform="translate(-52.49 -64.714)"
        ></path>
        <path
          fill="#d400aa"
          strokeDasharray="none"
          strokeDashoffset="0"
          strokeLinejoin="round"
          strokeMiterlimit="4"
          strokeWidth="0.067"
          d="M53.968 101.586a4.894 4.894 0 01-.21-.554 3.197 3.197 0 00-.29-.645c-.444-.663-.599-2.004-.315-2.729.138-.353.139-.358.01-.568-.159-.261-.162-.477-.018-1.095.11-.47.11-.497-.038-1.135-.306-1.32-.245-2.76.161-3.795.087-.22.193-.641.236-.935.22-1.498 1.056-3.126 2.118-4.12.331-.31.332-.31.376-.84.096-1.154.438-1.947 1.147-2.662a3.548 3.548 0 011.027-.752c.306-.153.594-.279.64-.279.046 0 .193-.265.328-.59.851-2.055 2.543-3.942 5.019-5.597.404-.27.987-.685 1.295-.922.96-.737 2.274-1.39 3.85-1.911.52-.173.8-.316 1.267-.65 1.539-1.104 3.173-1.817 4.914-2.144 1.076-.203 1.446-.236 1.487-.133 1.58 4.027 5.372 13.792 5.698 14.673.264.716.427 1.247.392 1.281-.033.032-6.48 3.642-14.326 8.022a8122.675 8122.675 0 00-14.479 8.094c-.212.129-.213.129-.29-.014z"
          opacity="1"
          paintOrder="normal"
          transform="translate(-52.49 -64.714)"
        ></path>
      </g>
    </svg>
