   <svg
      xmlns="http://www.w3.org/2000/svg"
      width="210mm"
      height="297mm"
      version="1.1"
      viewBox="0 0 210 297"
    >
      <path
        fill="#008b00"
        fillOpacity="1"
        stroke="#b40000"
        strokeLinecap="butt"
        strokeLinejoin="miter"
        strokeOpacity="1"
        strokeWidth="0.265"
        d="M90.337 106.17c.508-11.819 3.143-26.307-.951-37.425l-.825-1.765-1.201-1.75-1.39-1.326c-.311-.36-.88-.64-1.316-.94-.197-.136-.516-.273-1.09-.41 0 0-1.72-.154-2.737-.217h-2.05c-1.076.077-1.838-.05-3.715.314-1.273.195-2 .421-2.583.579-1.187.342-2.151.647-2.96.926l-1.765.679c-1.205.54-2.025.841-3.678 1.662-4.457 2.456-9.529 5.742-12.902 8.56l-5.722 4.985c10.644 16.184-3.537 26.813 31.049 48.628.415.263 1.24-.088 1.67.178 4.572-3.182 3.866-3.592 6.471-5.98l5.127-6.588z"
      ></path>
      <path
        fill="#e9afaf"
        fillOpacity="1"
        stroke="#0000b3"
        strokeLinecap="butt"
        strokeLinejoin="miter"
        strokeOpacity="1"
        strokeWidth="0.265"
        d="M89.77 116.28l.033 15.414c.398 15.574-4.366 27.707-6.549 41.56-.817 8.237.088 13.278.134 19.912 2.798 18.32-7.06 21.814-14.19 26.786-.948.661-2.39 1.051-3.638 1.725-9.712 3.933-13.105 5.697-23.504 10.132 1.563-40.709-.878-81.523 13.402-121.898.796 1.336 2.024 3.002 2.716 3.746 2.096 2.674 5.006 5.44 7.763 7.516 1.241.934 3.116 2.533 4.07 3.182 1.685 1.148 2.29 1.69 4.796 3.18.799.702 2.197 1.602 3.367 1.313 1.923-1.366 2.805-2.153 3.614-2.9 3.298-3.177 5.394-6.44 7.985-9.668z"
      ></path>
      <path
        fill="olive"
        fillOpacity="1"
        stroke="#8ad3fe"
        strokeLinecap="butt"
        strokeLinejoin="miter"
        strokeOpacity="1"
        strokeWidth="0.265"
        d="M45.452 80.042c2.017 2.876 3.377 6.507 4.394 10.091l5.612 19.778-4.075 13.564-6.098 33.142-2.054 28.464-1.175 46.728-5.24 2.717-16.838 11.492c-3.518 1.305-6.99 1.926-10.156-1.87-3.284-4.646-6.194-11.421-7.082-18.977-4.02-19.592-2.352-38.753-.401-57.062 2.687-14.241 4.874-28.53 11.158-42.429 2.127-5.065 4.392-10.15 7.243-14.608 6.943-10.86 13.844-21.032 24.712-31.03"
      ></path>
      <path
        fill="#e9afaf"
        fillOpacity="1"
        stroke="#0000b3"
        strokeLinecap="butt"
        strokeLinejoin="miter"
        strokeOpacity="1"
        strokeWidth="0.265"
        d="M120.515 116.28l-.033 15.414c-.4 15.574 4.365 27.707 6.548 41.56.817 8.237-.088 13.278-.134 19.912-2.798 18.32 7.06 21.814 14.19 26.786.948.661 2.39 1.051 3.638 1.725 9.712 3.933 13.105 5.697 23.504 10.132-1.563-40.709.878-81.523-13.402-121.898-.796 1.336-2.024 3.002-2.716 3.746-2.096 2.674-5.006 5.44-7.763 7.516-1.241.934-3.116 2.533-4.07 3.182-1.685 1.148-2.29 1.69-4.796 3.18-.799.702-2.196 1.602-3.367 1.313-1.923-1.366-2.805-2.153-3.614-2.9-3.297-3.177-5.393-6.44-7.985-9.668z"
      ></path>
      <path
        fill="olive"
        fillOpacity="1"
        stroke="#8ad3fe"
        strokeLinecap="butt"
        strokeLinejoin="miter"
        strokeOpacity="1"
        strokeWidth="0.265"
        d="M164.832 80.042c-2.017 2.876-3.376 6.507-4.394 10.091l-5.612 19.778 4.076 13.564 6.097 33.142 2.054 28.464 1.175 46.728 5.24 2.717 16.838 11.492c3.518 1.305 6.99 1.926 10.156-1.87 3.284-4.646 6.194-11.421 7.083-18.977 4.019-19.592 2.351-38.753.4-57.062-2.687-14.241-4.874-28.53-11.158-42.429-2.127-5.065-4.392-10.15-7.242-14.608-6.944-10.86-13.845-21.032-24.713-31.03"
      ></path>
      <path
        fill="#008b00"
        fillOpacity="1"
        stroke="#b40000"
        strokeLinecap="butt"
        strokeLinejoin="miter"
        strokeOpacity="1"
        strokeWidth="0.265"
        d="M119.947 106.17c-.508-11.819-3.143-26.307.951-37.425l.825-1.765 1.202-1.75 1.388-1.326c.312-.36.881-.64 1.317-.94.197-.136.516-.273 1.09-.41 0 0 1.72-.154 2.737-.217h2.05c1.076.077 1.838-.05 3.716.314 1.272.195 1.998.421 2.582.579a60.32 60.32 0 012.96.926l1.765.679c1.205.54 2.025.841 3.678 1.662 4.457 2.456 9.529 5.742 12.902 8.56l5.722 4.985c-10.644 16.184 3.537 26.813-31.048 48.628-.416.263-1.24-.088-1.67.178-4.573-3.182-3.867-3.592-6.472-5.98l-5.127-6.588z"
      ></path>
    </svg>